<svg width="632" height="688" viewBox="0 0 632 688" fill="none" xmlns="http://www.w3.org/2000/svg">
<path d="M263.493 0.773727C198.96 6.10706 140.293 35.5737 103.493 80.9071C79.493 110.507 66.4263 137.84 54.4263 183.44C50.1596 199.574 48.0263 205.04 41.6263 216.107C22.1596 249.84 9.22629 285.44 3.09296 322.107C0.0262899 340.107 -0.907044 375.574 0.959623 396.24C10.5596 498.107 74.1596 593.04 168.96 646.774C215.76 673.174 271.093 687.44 327.893 687.44C398.96 687.44 466.826 663.44 524.56 617.974C538.56 607.04 561.893 583.974 572.693 570.774C597.093 540.64 619.226 499.84 628.96 466.64C633.226 452.374 632.826 451.44 625.36 458.374C612.293 470.64 589.493 481.574 567.093 486.24C540.026 491.974 510.826 491.04 460.426 482.64C394.293 471.707 368.426 468.774 340.56 468.774C281.093 468.774 227.626 485.707 186.026 517.707C176.693 524.907 150.426 549.84 150.426 551.574C150.426 552.24 154.693 555.04 159.893 557.974L169.36 563.174L176.96 555.574C208.16 524.374 249.36 503.174 293.76 495.44C333.493 488.64 372.56 490.64 447.093 503.44C486.426 510.24 502.826 511.84 529.093 511.84C552.693 511.974 568.026 510.24 582.293 506.107C584.826 505.44 587.226 505.04 587.493 505.44C588.426 506.374 576.026 527.174 566.426 540.774C531.493 590.24 477.893 629.974 419.76 649.84C392.56 659.174 368.293 663.307 335.626 664.374C280.16 666.24 230.56 654.374 183.226 627.974C171.36 621.44 153.76 608.774 161.76 612.507C175.36 619.04 209.226 628.507 232.426 632.374C250.96 635.44 306.693 635.84 322.426 633.04C374.693 623.707 417.893 605.84 451.36 579.84C457.36 575.174 462.693 570.774 463.093 570.107C464.026 568.64 456.826 571.574 444.693 577.707C411.493 594.374 366.026 607.574 328.026 611.574C307.093 613.707 264.693 612.374 246.293 609.04C166.026 594.107 106.426 556.507 69.3596 497.44C62.5596 486.507 51.093 461.174 46.693 447.44C38.1596 420.64 34.693 401.307 33.6263 374.107C31.093 314.907 50.293 254.107 86.8263 205.574C133.493 143.307 202.56 102.507 279.093 91.8404C296.16 89.4404 344.16 88.7737 356.426 90.6404C365.36 92.1071 363.093 90.1071 352.026 87.1737C322.426 78.9071 312.293 77.5737 284.426 77.5737C261.226 77.5737 255.493 78.1071 239.76 81.1737C189.893 90.9071 149.36 109.707 108.426 142.24C102.56 146.774 94.293 153.84 90.1596 157.84L82.5596 165.174L87.2263 153.307C104.293 111.174 128.293 80.6404 163.36 57.0404C199.76 32.5071 254.693 19.3071 304.16 23.3071C366.693 28.3737 425.626 53.5737 472.16 95.0404C483.36 105.04 503.76 127.04 503.76 129.04C503.76 129.44 500.96 129.174 497.493 128.507C486.426 126.24 452.426 126.64 439.226 129.307C404.026 136.24 381.893 146.907 323.76 184.907C291.226 206.107 261.626 222.107 244.026 227.974C204.56 241.174 161.493 238.64 120.826 220.64C114.026 217.707 107.493 214.907 106.16 214.507C104.693 214.107 102.426 216.24 98.5596 221.974C95.493 226.374 93.093 230.64 93.093 231.307C93.093 234.774 128.426 248.774 149.626 253.84C163.226 257.04 166.826 257.44 192.426 257.44C218.693 257.44 221.36 257.174 234.96 253.707C269.093 245.04 289.36 234.64 353.76 192.507C387.893 170.24 409.226 159.84 434.426 153.44C468.56 144.907 505.226 148.907 542.426 165.307L555.893 171.307L549.626 159.707C524.56 113.44 498.96 84.2404 458.16 55.0404C404.693 16.9071 328.16 -4.42627 263.493 0.773727Z" fill="#7EAE3E"/>
<path d="M402.293 230.507C399.76 232.24 386.56 242.907 373.093 254.24C359.493 265.574 335.493 285.574 319.76 298.774C304.026 311.84 288.693 324.774 285.626 327.44L280.16 332.374L288.56 339.307C293.226 343.174 297.36 346.24 298.026 346.24C298.96 346.107 323.493 325.84 382.293 276.374C395.226 265.574 406.693 256.107 407.76 255.574C409.76 254.374 423.36 265.307 491.093 322.774L516.426 344.374L516.826 407.84L517.093 471.44H528.426H539.76L540.026 417.974L540.426 364.507L548.96 371.307C555.226 376.24 558.56 378.107 561.76 378.107C568.96 378.107 574.56 369.307 571.493 362.774C570.693 361.04 557.626 349.04 542.293 335.974L514.426 312.24V283.974C514.426 259.974 514.16 255.307 512.293 253.574C509.626 250.774 482.826 250.507 479.36 253.04C477.626 254.374 477.093 257.44 476.826 267.574L476.426 280.374L444.826 253.84C423.226 235.974 412.026 227.44 409.893 227.44C408.16 227.44 404.693 228.774 402.293 230.507Z" fill="#1E645C"/>
<path d="M205.093 305.707C201.893 308.507 190.826 317.707 180.56 326.24L161.76 341.707L161.36 334.24C161.093 330.24 160.293 326.107 159.493 325.174C157.76 323.04 136.826 322.774 132.96 324.774C130.56 326.107 130.426 327.84 130.426 347.174V368.24L108.96 386.107C97.2263 395.974 86.693 405.174 85.6263 406.64C82.693 410.907 83.3597 415.307 87.6263 419.574C93.2263 425.04 97.6263 424.64 105.76 417.974L112.426 412.507L112.826 467.174L113.093 521.84L122.56 530.64C127.76 535.44 132.56 539.44 133.226 539.44C133.893 539.44 134.426 507.44 134.426 466.374V393.44L149.893 380.774C158.426 373.84 176.426 358.907 189.893 347.707C203.226 336.64 214.693 327.44 215.36 327.44C215.893 327.574 222.426 332.64 229.76 338.907C237.093 345.174 254.96 360.107 269.493 372.24L295.76 394.24V424.374V454.374L306.16 453.44C311.76 452.907 316.96 451.974 317.493 451.44C318.026 450.907 318.426 442.24 318.16 432.24C317.893 422.24 318.026 414.107 318.426 414.107C318.826 414.107 321.76 416.24 324.96 418.774C331.36 423.84 336.16 424.64 340.826 421.307C348.026 416.374 346.826 406.774 338.293 400.64C335.76 398.907 325.36 390.24 315.093 381.307C304.826 372.507 279.093 350.774 257.893 333.04C214.16 296.507 215.226 297.04 205.093 305.707Z" fill="#1E645C"/>
<path d="M380.426 370.774L377.093 373.974V413.174V452.507L380.16 453.307C381.76 453.707 385.226 454.107 387.76 454.107C393.226 454.107 437.226 460.374 440.293 461.574C442.16 462.374 442.426 457.84 442.426 417.84V373.174L439.36 370.374C436.426 367.574 435.093 367.44 409.893 367.44C383.76 367.44 383.626 367.44 380.426 370.774Z" fill="#1E645C"/>
<path d="M192.56 411.574L189.093 414.24V454.374V494.374L192.826 491.974C201.76 485.974 222.56 475.04 231.36 471.707L241.093 468.107V440.507C241.093 406.24 243.093 408.774 215.626 408.774C197.893 408.774 195.76 409.04 192.56 411.574Z" fill="#1E645C"/>
</svg>
