<svg width="1028" height="852" viewBox="0 0 1028 852" fill="none" xmlns="http://www.w3.org/2000/svg">
<path d="M440.667 0.669448C393.333 6.26945 349.333 25.8694 318.4 55.2028C285.733 86.4028 264.133 126.536 253.467 176.136C251.2 186.269 249.067 191.469 243.333 201.469C207.733 263.203 195.6 335.736 209.333 403.603C228 495.069 286.933 573.736 369.6 617.469C418.133 643.069 477.067 654.936 532 650.269C635.6 641.203 728.4 573.869 772.533 475.736C778.267 463.203 789.333 432.003 789.333 428.803C789.333 428.003 786.533 429.736 783.067 432.536C758.667 452.936 735.333 461.469 700.667 463.069C680.933 464.003 662.133 462.136 622 455.469C583.733 449.069 566.133 446.536 546.667 444.803C474.133 438.403 413.067 456.669 364.533 499.336C353.733 508.936 342.267 521.736 343.2 523.203C343.467 523.736 347.733 526.269 352.533 528.803L361.2 533.469L368 525.869C386.267 505.336 416.667 486.003 446 476.403C490.933 461.603 531.067 461.336 610.667 475.469C653.333 482.936 663.2 484.003 692 484.003C715.2 484.136 721.333 483.603 732.667 481.203C739.867 479.603 746.133 478.403 746.4 478.669C747.333 479.603 738.267 496.269 730.267 508.136C712.267 535.203 691.867 556.803 665.867 576.269C594.667 629.736 507.067 644.136 421.6 616.003C401.2 609.336 378.667 598.803 363.6 588.803C357.867 584.936 353.333 581.736 353.6 581.469C353.867 581.203 361.2 583.469 370 586.403C430.4 606.669 490 607.469 548 588.669C564.667 583.336 596.267 567.736 609.067 558.403C620.133 550.536 633.6 539.336 632.933 538.669C632.8 538.403 626.133 541.603 618.267 545.603C584.133 563.069 554.533 572.803 521.2 577.336C452.933 586.803 387.467 573.069 332.4 537.736C279.867 504.003 245.6 445.869 236.533 375.069C233.867 354.269 234.533 320.669 238 301.469C250.933 228.536 293.2 166.669 359.333 123.469C380.667 109.603 405.2 99.2028 435.2 91.4695C458.267 85.6028 471.867 84.1361 506.267 84.2695C523.333 84.2695 537.067 84.1361 536.933 84.0028C536.8 83.8695 531.067 82.2695 524.267 80.2695C481.2 68.0028 425.733 71.0695 382 88.4028C347.333 102.136 316.267 121.336 291.733 144.536C286.667 149.336 282.4 152.936 282 152.669C280.933 151.469 291.733 126.403 298 115.603C322 74.1361 355.867 45.8695 398.267 32.0028C424.8 23.3361 436.133 21.6028 467.333 21.6028C500.533 21.6028 515.867 23.8694 544.933 33.4695C588.667 47.8695 631.333 75.8694 659.6 108.803C664.933 114.936 669.333 120.403 669.333 120.936C669.333 121.336 666.533 121.203 663.067 120.669C659.467 120.136 650 119.603 641.733 119.603C598.4 119.336 568.933 130.803 505.733 172.536C458.8 203.603 443.867 211.203 415.067 219.069C403.867 222.136 399.467 222.669 384 222.669C372.4 222.669 361.867 221.869 354.4 220.403C340 217.469 317.733 209.869 308.133 204.536C304.267 202.403 300.533 201.069 300 201.736C297.867 204.003 289.333 217.203 289.333 218.003C289.333 219.603 314.4 231.069 325.333 234.536C347.467 241.736 355.067 242.803 382.667 242.803C406.667 242.803 409.733 242.536 422.133 239.203C439.067 234.669 463.333 224.403 478.4 215.203C484.8 211.336 504.133 198.936 521.333 187.469C576.133 151.336 603.867 140.269 640.667 140.536C661.6 140.536 683.2 145.736 706.533 156.403C711.867 158.803 716.533 160.803 716.8 160.803C718 160.803 704.4 135.203 697.733 124.803C673.467 87.4694 638.133 54.6695 599.733 33.8695C572.4 19.0694 540.133 7.86945 510 2.66945C496.133 0.269448 454.4 -0.797218 440.667 0.669448Z" fill="#7EAE3E"/>
<path d="M578.4 216.003C576.533 217.069 551.733 237.869 523.333 262.269C494.933 286.803 469.867 308.403 467.467 310.403C465.2 312.269 463.6 314.136 464 314.403C464.4 314.669 468 317.736 472.133 321.203L479.6 327.469L492.133 316.669C506.267 304.536 531.333 283.069 546.667 270.136C552.267 265.336 562.533 256.536 569.333 250.536C579.867 241.336 582.133 239.736 583.867 241.203C585.067 242.003 604.8 258.936 627.867 278.803C650.933 298.536 672.667 317.203 676.133 320.136L682.667 325.469V385.736V446.136H692.667H702.667V394.669V343.336L710.667 350.269C720.267 358.536 725.2 359.469 730.267 353.603C737.067 345.736 735.067 342.803 705.2 317.069L680 295.336V268.403C680 253.603 679.467 240.669 678.933 239.736C678 238.536 673.733 238.136 661.867 238.403L646 238.803L645.6 251.736C645.467 258.936 644.933 264.803 644.533 264.803C644.133 264.803 637.067 258.936 628.933 251.736C600.933 227.336 588.133 216.803 584.933 215.603C582.667 214.669 580.667 214.936 578.4 216.003Z" fill="#1E645C"/>
<path d="M400.533 284.536C398.933 284.669 388 293.336 376 303.469C364.133 313.736 353.733 322.136 353.2 322.136C352.533 322.136 352 318.536 352 314.136V306.003L338.4 306.403L324.667 306.803L324 327.736L323.333 348.536L303.067 366.003C289.6 377.603 282.4 384.669 281.867 387.069C279.867 394.803 286.4 402.136 293.733 400.269C295.733 399.869 299.333 397.603 301.867 395.469C304.267 393.203 306.667 391.469 307.2 391.469C307.6 391.469 308 414.536 308 442.669V493.869L317.733 502.803L327.333 511.603L328 441.869L328.667 372.003L334 367.203C350.533 352.269 402 308.803 402.8 309.069C404 309.603 462.8 359.736 471.067 367.336L477.333 373.203V401.736C477.333 428.269 477.467 430.269 479.733 429.603C480.933 429.336 485.467 428.669 489.733 428.136L497.333 427.336V409.336C497.333 399.469 497.733 391.469 498.133 391.469C498.533 391.469 501.467 393.603 504.533 396.136C511.067 401.469 515.467 402.003 519.733 398.136C523.333 394.803 524.533 390.403 523.067 386.403C522.4 384.669 515.867 378.136 508.4 371.736C466.667 335.603 419.733 295.469 414 290.669C406.667 284.669 404.667 283.736 400.533 284.536Z" fill="#1E645C"/>
<path d="M555.467 349.603C553.6 351.336 553.333 356.936 553.333 390.269V428.803H557.067C560 428.803 578.667 431.469 607.733 436.269L613.6 437.203L613.067 395.336C612.8 364.403 612.267 352.669 610.933 350.403C609.333 347.469 608.8 347.469 583.333 347.469C561.6 347.469 557.2 347.869 555.467 349.603Z" fill="#1E645C"/>
<path d="M382.667 387.736C381.2 388.269 379.733 390.003 379.333 391.736C378.933 393.469 378.8 411.203 378.933 431.069L379.333 467.469L385.333 463.336C392.533 458.403 422.267 443.469 424.8 443.469C427.333 443.469 427.467 393.069 425.067 389.736C423.6 388.003 420 387.603 404.267 387.203C393.733 386.936 384 387.203 382.667 387.736Z" fill="#1E645C"/>
<path d="M515.733 692.27C504 698.536 508.8 716.136 522.667 717.736C534.4 718.936 542.933 708.536 538.667 698.136C535.6 690.803 524 687.736 515.733 692.27Z" fill="#1E645C"/>
<path d="M661.333 757.47V818.136H674H686.667V791.736C686.667 766.936 686.933 765.203 689.733 760.136C693.467 753.603 698.667 750.803 707.067 750.936C714.8 751.07 720 754.403 722.267 760.936C723.333 763.87 723.867 775.07 723.867 791.736L724 818.136H736.8H749.6L749.067 786.403C748.533 751.47 747.867 748.27 739.6 739.736C733.467 733.336 726 729.87 716.667 729.203C707.2 728.403 699.6 730.27 692.8 734.803C690.133 736.67 687.6 738.136 687.333 738.136C686.933 738.136 686.667 728.803 686.667 717.47V696.803H674H661.333V757.47Z" fill="#1E645C"/>
<path d="M766.667 757.469V818.136H778.533H790.533L790.933 813.469L791.333 808.936L797.2 812.803C805.067 818.136 812.267 819.869 822.267 819.069C841.867 817.203 855.333 803.869 858.667 782.936C861.6 764.803 855.6 747.203 843.6 738.269C833.733 731.069 828.933 729.469 816.533 729.469C806.667 729.469 805.067 729.869 798.8 733.736L792 738.003V717.469V696.803H779.333H766.667V757.469ZM822.267 752.403C824.8 753.603 828.533 756.936 830.4 759.869C834.933 766.536 835.333 780.269 831.333 787.069C825.2 797.336 811.6 801.336 802.8 795.203C795.067 790.003 792.8 785.736 792.267 775.469C791.733 767.736 792.133 765.469 794.8 760.803C800.267 751.069 812 747.469 822.267 752.403Z" fill="#1E645C"/>
<path d="M0 760.803V818.136H43.3333H86.6667V807.47V796.803H56H25.3333V783.47V770.136H51.3333H77.3333V759.47V748.803H51.3333H25.3333V736.803V724.803H54.6667H84V714.136V703.47H42H0V760.803Z" fill="#1E645C"/>
<path d="M293.333 760.803V818.136H306H318.667L318.933 784.003L319.333 749.87L346.4 784.003L373.6 818.136H384.133H394.667V760.803V703.47H382H369.333L369.067 737.736L368.667 772.003L364.267 766.136C361.867 762.803 349.867 747.47 337.6 731.87L315.333 703.603L304.4 703.47H293.333V760.803Z" fill="#1E645C"/>
<path d="M127.067 730.669C112.667 735.336 102.133 745.069 97.1999 758.003C94.9332 764.003 94.5332 767.603 94.9332 776.269C95.8666 794.803 104.4 807.469 121.2 815.203C127.6 818.269 130.533 818.803 141.333 818.803C155.733 818.803 163.867 816.003 171.733 808.403C176 804.403 180.8 797.069 179.733 796.136C179.467 795.869 175.333 793.469 170.4 790.803L161.333 785.869L157.867 790.003C148.533 801.203 133.2 800.803 124.533 789.469C121.467 785.336 120.667 782.803 120.267 775.469C119.6 765.469 121.2 761.203 127.867 754.936C130.8 752.003 133.6 750.936 138.533 750.403C147.6 749.603 151.2 750.669 156.667 756.269L161.467 760.936L170.4 756.136C175.333 753.336 179.6 750.936 179.867 750.803C180.533 750.003 174.667 741.736 171.467 739.069C169.867 737.736 165.733 735.203 162 733.203C153.867 728.936 136.133 727.603 127.067 730.669Z" fill="#1E645C"/>
<path d="M220 730.003C212.133 731.603 202.933 736.67 196.933 742.803C189.067 750.67 185.333 760.67 185.333 774.003C185.333 788.936 188.133 795.736 197.867 805.603C204.8 812.403 207.467 814.136 215.733 816.803C239.333 824.27 264.267 814.803 274.267 794.403C277.6 787.736 278 785.336 278 774.136C278 763.736 277.467 760.403 274.933 755.336C267.067 739.203 253.2 730.27 235.2 729.47C229.333 729.203 222.533 729.336 220 730.003ZM243.733 753.603C245.733 755.07 248.667 758.936 250.4 762.27C252.933 767.07 253.467 769.603 252.933 776.536C251.867 790.803 243.067 798.936 230 797.87C217.067 796.803 210.267 788.27 210.133 773.336C210.133 763.87 213.067 757.736 220.133 753.07C223.867 750.403 226 750.003 232.4 750.403C237.2 750.803 241.333 752.003 243.733 753.603Z" fill="#1E645C"/>
<path d="M442.533 730.536C428.4 734.536 416.667 744.936 412.4 757.336C409.333 766.269 409.333 780.803 412.533 789.869C415.867 799.736 425.733 810.003 436.267 814.803C443.6 818.269 446.267 818.669 458 818.669C469.867 818.803 472.267 818.403 479.6 814.936C484.133 812.936 489.067 809.736 490.8 808.003L493.733 804.936L488.533 799.203C479.6 789.203 480.4 789.603 475.867 793.336C463.733 803.469 443.733 799.736 436.533 785.869C435.467 783.869 434.667 782.003 434.667 781.469C434.667 781.069 448.933 780.803 466.533 780.803C503.2 780.803 500.533 782.003 498.667 766.803C495.867 744.669 480.4 730.269 458.133 729.203C452.933 729.069 445.867 729.603 442.533 730.536ZM463.2 749.336C468.4 751.469 474.667 759.069 474.667 763.203C474.667 766.136 474.267 766.136 454.533 766.136H434.533L435.467 763.069C437.6 756.136 440.4 752.403 445.733 750.003C452.4 747.069 457.2 746.803 463.2 749.336Z" fill="#1E645C"/>
<path d="M579.333 730.67C566.533 734.67 557.2 743.336 552.933 755.07C550.533 761.87 549.733 775.87 551.467 782.803C558 809.736 589.867 822.936 612.133 808.003L619.067 803.336L618.267 810.803C617.067 822.803 610.667 829.336 598.267 830.936C590.667 832.003 578.133 829.336 570.933 825.336C567.867 823.47 564.667 822.403 564 822.803C562.533 823.736 554.667 838.67 554.667 840.536C554.667 842.003 568.4 848.27 576 850.27C584.267 852.536 604.533 852.536 612.933 850.403C622.133 848.003 630.8 842.136 635.333 835.203C642 825.07 642.667 819.87 642.667 773.07V730.136H630.667H618.667V734.936V739.603L614 736.003C604.8 729.07 591.2 726.936 579.333 730.67ZM608 753.07C615.6 758.27 618 762.67 618 771.47C618 784.003 610.667 791.603 597.733 792.536C588 793.203 582.133 789.603 577.467 780.403C572.267 769.87 575.467 758.936 585.867 752.67C591.733 749.07 602.4 749.336 608 753.07Z" fill="#1E645C"/>
<path d="M898.267 731.336C878.267 737.87 867.6 752.936 867.6 774.136C867.733 790.67 874.133 803.47 886.4 811.336C911.2 827.07 944.933 818.936 956.933 794.403C960.267 787.736 960.667 785.336 960.667 774.136C960.667 758.936 957.733 751.736 947.733 741.87C936 730.403 914.8 725.87 898.267 731.336ZM927.067 754.536C940.267 764.536 938.267 788.803 923.733 796.27C918.133 799.203 907.067 798.27 901.733 794.403C895.867 790.136 892.8 782.936 892.8 773.336C892.8 763.736 895.867 757.736 902.8 753.07C909.067 748.67 920.4 749.336 927.067 754.536Z" fill="#1E645C"/>
<path d="M1016.93 730.27C1010.4 731.736 1005.33 734.536 1002.13 738.003C998.4 742.003 997.333 741.47 997.333 735.47V730.136H986H974.667V774.136V818.136H987.333H1000V793.07C1000 772.003 1000.4 767.47 1002.4 763.47C1005.87 756.536 1012.27 752.803 1020.8 752.803H1028V740.803C1028 727.336 1028.27 727.603 1016.93 730.27Z" fill="#1E645C"/>
<path d="M512 774.136V818.136H524.667H537.333V774.136V730.136H524.667H512V774.136Z" fill="#1E645C"/>
</svg>
